<svg xmlns="http://www.w3.org/2000/svg" viewBox="0 0 105.45 84.2"><defs><style>.cls-1{fill:#bababa;}</style></defs><title>icon-6</title><g id="Layer_2" data-name="Layer 2"><g id="レイヤー_1" data-name="レイヤー 1"><path class="cls-1" d="M102.62,48.35a3.87,3.87,0,0,0,2.21-3.47l0-5a3.89,3.89,0,0,0-2.18-3.49l2.76-34A1.63,1.63,0,0,0,104,.56L87,.47a1.62,1.62,0,0,0-1.47,1.85l.13,1.85L20.17,3.82,20.32,2A1.64,1.64,0,0,0,18.87.09L1.91,0A1.64,1.64,0,0,0,.44,1.86l2.39,34A3.85,3.85,0,0,0,.62,39.32l0,5A3.85,3.85,0,0,0,2.76,47.8L0,81.77a1.64,1.64,0,0,0,1.45,1.88l17,.09a1.64,1.64,0,0,0,1.47-1.86L19.75,80l65.53.36-.15,1.85a1.63,1.63,0,0,0,1.45,1.87l17,.09A1.63,1.63,0,0,0,105,82.34ZM101,39.87l0,5L89.58,44.8l0-5ZM15.87,39.4l0,5-11.4-.06,0-5Zm35-1.32h-3a1.25,1.25,0,0,0-1.25,1.23l0,5.53a1.24,1.24,0,0,0,1.24,1.25l3,0-.14,26.16L19.2,72.09,17.5,47.88a3.86,3.86,0,0,0,2.21-3.46l0-5a3.85,3.85,0,0,0-2.17-3.48l2-24.19L51,11.92Zm35.1,34.38-31.43-.18.33-60.34,31.43.17L88,36.32a3.86,3.86,0,0,0-2.21,3.46l0,5a3.89,3.89,0,0,0,2.18,3.49Z"/></g></g></svg>